<svg xmlns="http://www.w3.org/2000/svg" version="1.1" xmlns:xlink="http://www.w3.org/1999/xlink" width="512" height="512" x="0" y="0" viewBox="0 0 64 64" style="enable-background:new 0 0 512 512" xml:space="preserve" class=""><g><path d="M25 35c0 3.86 3.14 7 7 7s7-3.14 7-7-3.14-7-7-7-7 3.14-7 7zm12 0c0 2.76-2.24 5-5 5s-5-2.24-5-5 2.24-5 5-5 5 2.24 5 5zM17.52 55.97C9.06 50.84 4 41.88 4 32c0-8.95 4.33-17.43 11.59-22.68.45-.32.55-.95.22-1.4s-.95-.55-1.4-.22C6.64 13.32 2 22.41 2 32c0 10.59 5.41 20.19 14.48 25.69.16.1.34.14.52.14a.995.995 0 0 0 .52-1.85zM49.59 7.7c-.45-.33-1.07-.22-1.4.22-.32.45-.22 1.07.22 1.4C55.66 14.57 60 23.05 60 32c0 9.89-5.05 18.85-13.52 23.97-.47.29-.62.9-.34 1.37.19.31.52.48.86.48.18 0 .36-.05.52-.14C56.59 52.19 62 42.59 62 31.99c0-9.59-4.64-18.68-12.41-24.3z" fill="#6348ed" opacity="1" data-original="#000000" class=""></path><path d="M11 32c0-4.86 1.69-9.6 4.77-13.33.35-.43.29-1.06-.14-1.41s-1.06-.29-1.41.14a23.027 23.027 0 0 0-5.23 14.61c0 6.52 2.79 12.77 7.65 17.13.19.17.43.26.67.26.27 0 .55-.11.74-.33a.998.998 0 0 0-.08-1.41 21.071 21.071 0 0 1-6.99-15.65zM47.35 49.13A23.057 23.057 0 0 0 55 32c0-5.33-1.86-10.51-5.23-14.61-.35-.43-.98-.49-1.41-.14s-.49.98-.14 1.41c3.08 3.74 4.77 8.47 4.77 13.33 0 5.96-2.55 11.66-6.99 15.65-.41.37-.45 1-.08 1.41a.996.996 0 0 0 1.41.07z" fill="#6348ed" opacity="1" data-original="#000000" class=""></path><path d="M21.18 43.37c.25 0 .5-.09.69-.28.4-.38.41-1.02.03-1.41C19.38 39.07 18 35.63 18 32c0-2.43.62-4.8 1.81-6.87a.996.996 0 1 0-1.73-.99c-1.36 2.37-2.07 5.09-2.07 7.87 0 4.15 1.58 8.08 4.46 11.06.2.2.46.31.72.31zM42.13 43.09c.19.19.44.28.69.28s.52-.1.72-.31C46.42 40.07 48 36.14 48 32c0-2.77-.72-5.49-2.07-7.87a.99.99 0 0 0-1.36-.37c-.48.27-.65.88-.37 1.36 1.18 2.07 1.81 4.45 1.81 6.87 0 3.63-1.38 7.06-3.9 9.68-.38.4-.37 1.03.03 1.41zM36 43c-.27 0-.52.11-.71.29L32 46.58l-3.29-3.29A.99.99 0 0 0 28 43c-4.41 0-8 3.59-8 8v7.83c0 .4.24.77.62.92C24.23 61.24 28.06 62 32 62s7.77-.76 11.38-2.25c.37-.15.62-.52.62-.92V51c0-4.41-3.59-8-8-8zm6 15.15c-6.37 2.45-13.63 2.45-20 0V51c0-3.17 2.48-5.78 5.6-5.99l3.69 3.69c.39.39 1.02.39 1.41 0l3.69-3.69c3.12.21 5.6 2.81 5.6 5.99v7.15zM21 22h7.5l2.7 3.6c.19.25.49.4.8.4s.61-.15.8-.4l2.7-3.6H43c1.65 0 3-1.35 3-3V5c0-1.65-1.35-3-3-3H21c-1.65 0-3 1.35-3 3v14c0 1.65 1.35 3 3 3zM20 5c0-.55.45-1 1-1h22c.55 0 1 .45 1 1v14c0 .55-.45 1-1 1h-8c-.31 0-.61.15-.8.4L32 23.33l-2.2-2.93c-.19-.25-.49-.4-.8-.4h-8c-.55 0-1-.45-1-1z" fill="#6348ed" opacity="1" data-original="#000000" class=""></path><path d="M25 10h8c.55 0 1-.45 1-1s-.45-1-1-1h-8c-.55 0-1 .45-1 1s.45 1 1 1zM25 16h14c.55 0 1-.45 1-1s-.45-1-1-1H25c-.55 0-1 .45-1 1s.45 1 1 1z" fill="#6348ed" opacity="1" data-original="#000000" class=""></path></g></svg>