<svg xmlns="http://www.w3.org/2000/svg" version="1.1" xmlns:xlink="http://www.w3.org/1999/xlink" width="512" height="512" x="0" y="0" viewBox="0 0 32 32" style="enable-background:new 0 0 512 512" xml:space="preserve" fill-rule="evenodd" class=""><g><path d="M26.5 5A2.5 2.5 0 0 0 24 2.5H8A2.5 2.5 0 0 0 5.5 5v22A2.5 2.5 0 0 0 8 29.5h11c.133 0 .26-.053.354-.146l7-7A.504.504 0 0 0 26.5 22zm-1 16.5V5A1.503 1.503 0 0 0 24 3.5H8A1.503 1.503 0 0 0 6.5 5v22A1.5 1.5 0 0 0 8 28.5h10.5V24a2.5 2.5 0 0 1 2.5-2.5zm-.707 1H21a1.5 1.5 0 0 0-1.5 1.5v3.793zm-8.293-2A1.5 1.5 0 0 0 15 19h-4a1.5 1.5 0 0 0-1.5 1.5v1A1.5 1.5 0 0 0 11 23h4a1.5 1.5 0 0 0 1.5-1.5zm-1 0a.5.5 0 0 0-.5-.5h-4a.5.5 0 0 0-.5.5v1a.5.5 0 0 0 .5.5h4a.5.5 0 0 0 .5-.5zm-5.5-4h12a.5.5 0 0 0 0-1H10a.5.5 0 0 0 0 1zm0-3h12a.5.5 0 0 0 0-1H10a.5.5 0 0 0 0 1zM22.5 8A1.5 1.5 0 0 0 21 6.5H11A1.5 1.5 0 0 0 9.5 8v1a1.5 1.5 0 0 0 1.5 1.5h10A1.5 1.5 0 0 0 22.5 9zm-1 0a.5.5 0 0 0-.5-.5H11a.5.5 0 0 0-.5.5v1a.5.5 0 0 0 .5.5h10a.5.5 0 0 0 .5-.5z" fill="#6348ed" opacity="1" data-original="#000000" class=""></path></g></svg>