<svg xmlns="http://www.w3.org/2000/svg" version="1.1" xmlns:xlink="http://www.w3.org/1999/xlink" width="512" height="512" x="0" y="0" viewBox="0 0 682.667 682.667" style="enable-background:new 0 0 512 512" xml:space="preserve" class=""><g><defs><clipPath id="a" clipPathUnits="userSpaceOnUse"><path d="M0 512h512V0H0Z" fill="#6348ed" opacity="1" data-original="#000000"></path></clipPath></defs><g clip-path="url(#a)" transform="matrix(1.33333 0 0 -1.33333 0 682.667)"><path d="M0 0h-300.585c-9.742 0-17.638 7.897-17.638 17.638v427.015c0 9.741 7.896 17.638 17.638 17.638H0c9.741 0 17.638-7.897 17.638-17.638V17.638C17.638 7.897 9.741 0 0 0Z" style="stroke-width:15;stroke-linecap:round;stroke-linejoin:round;stroke-miterlimit:10;stroke-dasharray:399, 35, 1000, 0;stroke-dashoffset:0;stroke-opacity:1" transform="translate(388.938 7.5)" fill="none" stroke="#6348ed" stroke-width="15" stroke-linecap="round" stroke-linejoin="round" stroke-miterlimit="10" stroke-dasharray="399, 35, 1000, 0" stroke-dashoffset="0" stroke-opacity="" data-original="#000000" opacity="1" class=""></path><path d="M0 0h-96.966a6.977 6.977 0 0 0 0 13.953H0A6.976 6.976 0 0 0 0 0" style="fill-opacity:1;fill-rule:nonzero;stroke:none" transform="translate(362.737 389.694)" fill="#6348ed" data-original="#000000" opacity="1"></path><path d="M0 0h-96.966a6.976 6.976 0 0 0 0 13.952H0A6.976 6.976 0 1 0 0 0" style="fill-opacity:1;fill-rule:nonzero;stroke:none" transform="translate(362.737 357.06)" fill="#6348ed" data-original="#000000" opacity="1"></path><path d="M0 0h-96.966a6.977 6.977 0 0 0 0 13.953H0A6.976 6.976 0 0 0 0 0" style="fill-opacity:1;fill-rule:nonzero;stroke:none" transform="translate(362.737 324.425)" fill="#6348ed" data-original="#000000" opacity="1"></path><path d="M0 0h-90.141a6.976 6.976 0 1 0 0 13.952H0A6.976 6.976 0 1 0 0 0" style="fill-opacity:1;fill-rule:nonzero;stroke:none" transform="translate(362.737 142.295)" fill="#6348ed" data-original="#000000" opacity="1"></path><path d="M0 0h-96.966a6.977 6.977 0 0 0 0 13.953H0A6.976 6.976 0 0 0 0 0" style="fill-opacity:1;fill-rule:nonzero;stroke:none" transform="translate(211.52 210.368)" fill="#6348ed" data-original="#000000" opacity="1"></path><path d="M0 0h-96.966a6.976 6.976 0 0 0 0 13.952H0A6.976 6.976 0 1 0 0 0" style="fill-opacity:1;fill-rule:nonzero;stroke:none" transform="translate(211.52 243.003)" fill="#6348ed" data-original="#000000" opacity="1"></path><path d="M0 0v-64.801h64.801C64.801-29.013 35.789 0 0 0Z" style="stroke-width:15;stroke-linecap:round;stroke-linejoin:round;stroke-miterlimit:10;stroke-dasharray:none;stroke-opacity:1" transform="translate(172.382 431.806)" fill="none" stroke="#6348ed" stroke-width="15" stroke-linecap="round" stroke-linejoin="round" stroke-miterlimit="10" stroke-dasharray="none" stroke-opacity="" data-original="#000000" opacity="1" class=""></path><path d="M0 0c-35.789 0-64.801-29.013-64.801-64.801 0-35.789 29.012-64.802 64.801-64.802s64.801 29.013 64.801 64.802H0Z" style="stroke-width:15;stroke-linecap:round;stroke-linejoin:round;stroke-miterlimit:10;stroke-dasharray:none;stroke-opacity:1" transform="translate(172.382 431.806)" fill="none" stroke="#6348ed" stroke-width="15" stroke-linecap="round" stroke-linejoin="round" stroke-miterlimit="10" stroke-dasharray="none" stroke-opacity="" data-original="#000000" opacity="1" class=""></path><path d="M0 0h-116.495a4.651 4.651 0 0 0-4.651 4.651v66.972a4.65 4.65 0 0 0 4.651 4.65H0a4.65 4.65 0 0 0 4.651-4.65V4.651A4.651 4.651 0 0 0 0 0Z" style="stroke-width:15;stroke-linecap:round;stroke-linejoin:round;stroke-miterlimit:10;stroke-dasharray:none;stroke-opacity:1" transform="translate(365.063 195.525)" fill="none" stroke="#6348ed" stroke-width="15" stroke-linecap="round" stroke-linejoin="round" stroke-miterlimit="10" stroke-dasharray="none" stroke-opacity="" data-original="#000000" opacity="1" class=""></path><path d="M0 0h-20.379a4.651 4.651 0 0 0-4.65 4.651v101.734a4.65 4.65 0 0 0 4.65 4.651H0a4.651 4.651 0 0 0 4.651-4.651V4.651A4.652 4.652 0 0 0 0 0Z" style="stroke-width:15;stroke-linecap:round;stroke-linejoin:round;stroke-miterlimit:10;stroke-dasharray:none;stroke-opacity:1" transform="translate(132.607 57.382)" fill="none" stroke="#6348ed" stroke-width="15" stroke-linecap="round" stroke-linejoin="round" stroke-miterlimit="10" stroke-dasharray="none" stroke-opacity="" data-original="#000000" opacity="1" class=""></path><path d="M0 0h-20.378a4.651 4.651 0 0 0-4.651 4.651v75.041a4.65 4.65 0 0 0 4.651 4.651H0a4.65 4.65 0 0 0 4.651-4.651V4.651A4.651 4.651 0 0 0 0 0Z" style="stroke-width:15;stroke-linecap:round;stroke-linejoin:round;stroke-miterlimit:10;stroke-dasharray:none;stroke-opacity:1" transform="translate(187.977 57.382)" fill="none" stroke="#6348ed" stroke-width="15" stroke-linecap="round" stroke-linejoin="round" stroke-miterlimit="10" stroke-dasharray="none" stroke-opacity="" data-original="#000000" opacity="1" class=""></path><path d="M0 0h-20.379a4.652 4.652 0 0 0-4.651 4.651v41.785a4.651 4.651 0 0 0 4.651 4.65H0a4.651 4.651 0 0 0 4.651-4.65V4.651A4.652 4.652 0 0 0 0 0Z" style="stroke-width:15;stroke-linecap:round;stroke-linejoin:round;stroke-miterlimit:10;stroke-dasharray:none;stroke-opacity:1" transform="translate(243.348 57.382)" fill="none" stroke="#6348ed" stroke-width="15" stroke-linecap="round" stroke-linejoin="round" stroke-miterlimit="10" stroke-dasharray="none" stroke-opacity="" data-original="#000000" opacity="1" class=""></path><path d="M0 0h-90.141a6.976 6.976 0 1 0 0 13.952H0A6.976 6.976 0 1 0 0 0" style="fill-opacity:1;fill-rule:nonzero;stroke:none" transform="translate(362.737 108.018)" fill="#6348ed" data-original="#000000" opacity="1"></path><path d="M0 0h-90.141a6.976 6.976 0 1 0 0 13.952H0A6.976 6.976 0 1 0 0 0" style="fill-opacity:1;fill-rule:nonzero;stroke:none" transform="translate(362.737 73.741)" fill="#6348ed" data-original="#000000" opacity="1"></path><path d="M0 0h-300.585c-9.741 0-17.638-7.897-17.638-17.638v-17.071h283.514c9.741 0 17.638-7.897 17.638-17.638v-409.944H0c9.742 0 17.638 7.897 17.638 17.638v427.015C17.638-7.897 9.742 0 0 0Z" style="stroke-width:15;stroke-linecap:round;stroke-linejoin:round;stroke-miterlimit:10;stroke-dasharray:504, 35, 400, 0;stroke-dashoffset:0;stroke-opacity:1" transform="translate(423.647 504.5)" fill="none" stroke="#6348ed" stroke-width="15" stroke-linecap="round" stroke-linejoin="round" stroke-miterlimit="10" stroke-dasharray="504, 35, 400, 0" stroke-dashoffset="0" stroke-opacity="" data-original="#000000" opacity="1" class=""></path></g></g></svg>