<svg xmlns="http://www.w3.org/2000/svg" version="1.1" xmlns:xlink="http://www.w3.org/1999/xlink" width="512" height="512" x="0" y="0" viewBox="0 0 128 128" style="enable-background:new 0 0 512 512" xml:space="preserve" class=""><g><path d="M96.58 93.75a30 30 0 1 0-2.83 2.83l30.84 30.84a2 2 0 0 0 2.83-2.83zm-41-38.13a26 26 0 0 1 37.77 35.75 19.84 19.84 0 0 0-12-14.25 11.84 11.84 0 1 0-14.69 0 19.84 19.84 0 0 0-12 14.25 26 26 0 0 1 .96-35.75zm10.58 12.22A7.84 7.84 0 1 1 74 75.69a7.85 7.85 0 0 1-7.84-7.85zm-7.9 26.85a15.76 15.76 0 0 1 31.48 0 26 26 0 0 1-31.48 0z" fill="#6348ed" opacity="1" data-original="#000000"></path><path d="M12.08 116H102a2 2 0 0 0 0-4H12.08A8.08 8.08 0 0 1 4 103.92V36h108v68a2 2 0 0 0 4 0V12.08A12.09 12.09 0 0 0 103.92 0H12.08A12.09 12.09 0 0 0 0 12.08v91.85A12.09 12.09 0 0 0 12.08 116zm0-112h91.85a8.08 8.08 0 0 1 8.07 8.08V32H4V12.08A8.08 8.08 0 0 1 12.08 4z" fill="#6348ed" opacity="1" data-original="#000000"></path><path d="M98 24a6 6 0 1 0-6-6 6 6 0 0 0 6 6zm0-8a2 2 0 1 1-2 2 2 2 0 0 1 2-2zM82 24a6 6 0 1 0-6-6 6 6 0 0 0 6 6zm0-8a2 2 0 1 1-2 2 2 2 0 0 1 2-2zM66 24a6 6 0 1 0-6-6 6 6 0 0 0 6 6zm0-8a2 2 0 1 1-2 2 2 2 0 0 1 2-2z" fill="#6348ed" opacity="1" data-original="#000000"></path></g></svg>